<svg width="652" height="130" viewBox="0 0 652 130" fill="none" xmlns="http://www.w3.org/2000/svg">
<path d="M135.895 60.382C135.551 59.5641 135.101 58.8835 134.693 58.1131C134.243 57.3216 133.767 56.5354 133.258 55.7861C131.214 52.7942 128.524 50.2087 125.463 48.2511C125.187 48.077 124.891 47.8975 124.616 47.7498C123.249 46.9478 121.772 46.1985 121.041 44.8266C120.48 43.7554 120.48 42.5154 120.427 41.3018C119.802 22.1477 104.661 4.43406 85.7923 0.724593C66.9234 -2.95849 46.1693 7.73194 38.3051 25.2292C37.9503 26.0418 37.569 26.9283 36.817 27.4032C35.8744 28.0153 34.6457 27.8358 33.5389 27.6987C32.0508 27.5245 30.5786 27.4665 29.0905 27.5351C29.0746 27.5193 29.0322 27.5193 29.0216 27.5193C20.3631 27.8306 11.9004 31.9569 6.49346 38.674C0.143834 46.5731 -1.73616 57.8229 1.6849 67.3577C5.11656 76.8978 13.7434 84.3906 23.6941 86.4854C24.0066 86.554 24.3349 86.6226 24.6526 86.7018C25.2087 86.8654 25.7277 87.0975 26.0984 87.5144C26.7021 88.2373 26.7127 89.2609 26.6862 90.1949C26.6174 93.0126 26.522 95.8303 26.4532 98.6692C26.3685 101.455 26.3685 104.463 28.026 106.737C28.6298 107.55 29.5142 108.135 30.4833 108.447C30.621 108.505 30.7587 108.542 30.891 108.584C32.5168 108.995 34.2645 108.642 35.0959 107.212C35.4613 106.6 35.599 105.882 35.6519 105.175C35.6943 104.811 38.178 103.951 38.5328 103.787C39.5549 103.376 40.6088 103.028 41.6732 102.727C41.7527 102.685 41.8215 102.669 41.9168 102.658C41.9539 102.632 42.0016 102.616 42.0545 102.616C46.1482 101.497 50.4801 101.165 54.7114 101.176C57.1527 101.191 59.5676 101.202 61.9878 101.297C63.1634 101.355 64.3232 101.424 65.4989 101.545C66.2615 101.598 67.0135 101.693 67.7761 101.788C76.011 102.89 84.0923 105.281 90.9609 110.03C92.449 111.064 94.0854 111.935 95.886 112.288C103.152 113.729 105.387 107.829 106.26 102.727C106.356 102.083 106.467 101.429 106.885 100.959C107.568 100.141 108.797 100.115 109.862 100.099C119.484 100.031 128.905 94.7381 133.963 86.591C135.869 83.4883 137.145 80.0216 137.754 76.4546C138.342 72.8507 138.273 69.1359 137.521 65.5742C137.156 63.7907 136.605 62.0336 135.885 60.3767L135.895 60.382ZM128.455 75.8372C126.464 84.6914 117.45 91.4033 108.358 90.8176C107.473 90.7648 106.854 90.4376 106.652 89.5248C106.202 87.4458 106.038 85.2402 105.837 83.1295C105.63 80.9133 105.492 78.7077 105.535 76.4757C105.551 75.0616 105.63 73.6316 105.794 72.2333C106.112 69.442 106.779 66.6295 107.86 64.0176C108.924 61.4215 110.412 58.9837 112.366 56.9469C105.154 61.3529 101.033 69.5422 99.2594 77.7738C98.3697 81.8842 97.9725 86.0897 97.7554 90.2899C97.5065 94.5059 97.427 98.7219 97.1517 102.938C97.1517 102.737 95.5947 101.92 95.3776 101.782C94.7527 101.387 94.1225 100.991 93.4658 100.627C92.2107 99.8933 90.9133 99.2126 89.5999 98.5847C86.952 97.3078 84.2088 96.2208 81.3809 95.3343C78.0234 94.2474 74.5546 93.4981 71.0594 92.9968C69.5448 92.7646 68.0144 92.6169 66.4945 92.5324C64.7098 92.4269 62.9198 92.4269 61.1405 92.5324C55.8977 92.8068 50.7078 93.9044 45.7563 95.7565C43.9027 96.4477 42.0704 97.2656 40.3228 98.2206C39.4755 98.6955 38.6599 99.2021 37.855 99.7456C37.5425 99.9619 35.6996 101.007 35.6996 101.376C35.6996 94.469 35.6731 87.583 35.6731 80.697C35.6731 80.5915 35.6996 80.4965 35.6731 80.3857V78.0059C35.5354 73.7055 34.8946 68.7402 33.3271 64.4292C31.9449 60.6036 29.8425 57.2741 26.7551 55.3534C26.0984 55.0949 25.5423 54.8099 24.9121 54.6463C25.9766 56.9575 26.4903 58.9732 26.9192 61.068C27.094 61.7751 27.2052 62.4874 27.274 63.2314C27.4541 64.6191 27.4806 66.0174 27.4382 67.4316C27.3853 70.5448 26.9722 74.0326 26.4532 77.1458C26.4532 77.1617 26.4532 77.1722 26.4373 77.1986C26.4214 77.3622 26.3844 77.5416 26.3526 77.6999C18.912 76.4493 12.3771 70.8456 10.0363 63.7063C7.6903 56.5354 9.67092 48.1403 14.9667 42.7687C15.6445 42.0722 16.3859 41.4337 17.175 40.848C21.5599 37.5554 27.2211 36.5106 32.6281 37.3549C34.7305 37.682 36.8594 38.0883 38.9247 38.5632C40.3705 38.9062 41.7791 39.2967 43.1031 39.7241C43.1878 39.7346 43.2778 39.7768 43.3467 39.8032C46.021 40.6475 48.2188 41.6711 50.3901 42.9059C52.5613 44.1406 54.6531 45.5969 57.1369 47.296C57.4917 42.1513 53.9276 38.1675 49.9028 35.2442C47.1279 33.2602 46.2117 29.5719 47.7845 26.5695C51.9099 18.6756 59.2975 12.4862 67.8979 10.0114C78.3252 6.96683 90.1771 9.39935 98.6292 16.2167C107.081 23.0289 111.911 34.0095 111.371 44.8266C111.275 47.0955 111.016 49.6705 112.499 51.4118C113.579 52.6518 115.242 53.1108 116.762 53.6965C125.225 57.0683 130.467 66.9725 128.45 75.8425L128.455 75.8372Z" fill="#BE1D2D"/>
<path d="M91.8978 119.47C91.5218 118.969 90.8969 118.589 90.2561 118.642C89.5412 118.7 89.1122 119.343 88.7097 119.86C87.8518 120.974 86.8192 122.124 85.384 122.435C84.3619 122.657 83.2816 122.398 82.3495 121.924C80.2418 120.852 78.759 118.879 76.6619 117.776C73.5427 116.135 70.1428 116.541 66.7482 116.61C64.5558 116.652 61.1612 116.235 61.8549 113.233C62.4533 110.637 63.3113 108.12 64.2592 105.614C64.3333 105.429 64.4022 105.239 64.4657 105.049C63.5337 104.97 62.6175 104.922 61.8284 104.885C61.3518 104.87 60.8752 104.854 60.3933 104.838C58.5874 108.326 56.5433 111.682 54.5521 115.069C54.319 115.465 54.0913 115.882 53.6359 115.993C51.2422 116.621 49.3675 118.346 47.2651 119.554C45.9623 120.304 44.1724 121.063 42.6843 120.436C41.4503 119.913 40.6189 118.647 39.904 117.581C39.4538 116.9 39.099 115.993 38.0769 116.125C37.0125 116.251 36.5465 117.175 36.1916 118.045C35.016 120.932 36.5729 124.509 39.7822 126.33C42.1017 127.649 44.6278 128.229 47.3075 128.287C52.1796 128.387 57.0623 127.258 61.5319 125.374C62.2362 125.079 62.9459 124.762 63.7084 124.662C64.8206 124.52 65.6891 125.095 66.6211 125.607C72.9178 129.11 82.143 132.023 88.9057 128.124C91.6012 126.572 93.7831 122.699 92.0408 119.67C91.9984 119.597 91.9508 119.528 91.8978 119.465V119.47Z" fill="#BE1D2D"/>
<path d="M160.33 25.7461V90.4321H167.394C170.587 90.4321 173.262 88.3637 174.151 85.4932C174.151 85.4932 174.183 85.4774 174.183 85.4616L174.459 84.0949V84.0263C174.496 83.8205 174.512 83.5831 174.512 83.3615V63.3684H195.557C197.649 63.3684 199.709 62.5136 200.736 60.6193C201.679 58.8938 201.732 56.7409 202.108 54.8414C202.161 54.6356 202.537 52.2769 202.706 52.2769H174.512V36.8428H197.749C200.238 36.8428 202.346 35.2176 203.05 32.9645C203.05 32.9645 203.066 32.9487 203.066 32.9328L203.289 31.8564C203.289 31.8248 204.56 25.7566 204.56 25.7566H160.324L160.33 25.7461Z" fill="#BE1D2D"/>
<path d="M232.028 43.6699C218.302 43.6699 209.023 50.5084 209.023 64.8344V69.8261C209.023 84.1521 218.296 90.9906 232.028 90.9906C245.76 90.9906 255.033 84.1521 255.033 69.8261V64.8344C255.033 50.234 245.755 43.6699 232.028 43.6699ZM241.582 70.3749C241.582 77.7674 238.431 81.2816 232.028 81.2816C225.626 81.2816 222.475 77.7674 222.475 70.3749V64.1854C222.475 56.8826 225.536 53.3736 232.028 53.3736C238.521 53.3736 241.582 56.8878 241.582 64.1854V70.3749Z" fill="#BE1D2D"/>
<path d="M283.138 43.6699C269.411 43.6699 260.133 50.5084 260.133 64.8344V69.8261C260.133 84.1521 269.406 90.9906 283.138 90.9906C296.87 90.9906 306.142 84.1521 306.142 69.8261V64.8344C306.142 50.234 296.864 43.6699 283.138 43.6699ZM292.691 70.3749C292.691 77.7674 289.535 81.2816 283.138 81.2816C276.74 81.2816 273.584 77.7674 273.584 70.3749V64.1854C273.584 56.8826 276.645 53.3736 283.138 53.3736C289.63 53.3736 292.691 56.8878 292.691 64.1854V70.3749Z" fill="#BE1D2D"/>
<path d="M347.594 27.6984C345.348 28.6904 343.733 30.875 343.617 33.4763V44.6891C339.073 44.1404 334.439 43.6813 329.535 43.6813C317.185 43.6813 311.164 50.2454 311.164 63.9171V71.315C311.164 84.9867 317.937 91.5508 332.04 91.5508C338.077 91.5508 344.045 90.9334 349.998 90.2527H350.051C350.618 90.1841 351.2 90.1155 351.767 90.0469C354.134 89.4665 356.019 87.6883 356.724 85.3824C356.724 85.3824 356.755 85.3666 356.755 85.3508L357.031 83.9999V83.9313C357.062 83.7256 357.084 83.4881 357.084 83.2823V25.7461L350.411 27.1127L347.599 27.6932L347.594 27.6984ZM343.611 80.8287C343.611 80.8287 343.558 80.8287 343.542 80.8445C340.508 81.2878 337.489 81.8365 334.349 81.8365C327.851 81.8365 324.605 78.0426 324.605 70.286V64.8353C324.605 57.1631 327.846 53.385 334.349 53.385C337.505 53.385 340.556 53.9338 343.611 54.3928V80.8287Z" fill="#BE1D2D"/>
<path d="M419.971 32.2574C418.43 35.4551 417.228 38.8215 415.803 42.0667C414.67 44.6628 413.542 47.28 412.408 49.8761C409.851 55.7384 407.298 61.6165 404.724 67.4947C403.972 69.2571 403.199 71.0142 402.426 72.7766L387.365 38.2042C386.369 35.93 385.442 33.6241 384.415 31.371C382.821 27.8356 379.543 25.7461 375.619 25.7461H365.43V90.4321H372.478C373.098 90.4321 373.659 90.3477 374.226 90.2105C376.609 89.6301 378.531 87.836 379.236 85.4932C379.236 85.4932 379.268 85.4774 379.268 85.4616L379.559 84.0949V84.0263C379.591 83.8205 379.612 83.5673 379.612 83.3615V48.9421L395.118 85.0869L395.7 86.4536C397.003 88.7964 399.476 90.4163 402.336 90.4374H402.389C403.056 90.4374 403.676 90.353 404.274 90.2C406.435 89.6723 408.251 88.2371 409.215 86.2847L409.559 85.4827L409.729 85.0553L409.745 85.0394L425.251 48.9474V83.3667C425.251 83.4881 425.251 83.5884 425.267 83.7256C425.457 87.4192 428.508 90.4057 432.246 90.4427H439.433V25.7461H429.228C424.853 25.7461 421.782 28.4794 419.965 32.2574H419.971Z" fill="#BE1D2D"/>
<path d="M469.401 43.6752C464.116 43.6752 457.618 44.4087 450.395 45.9811V55.6901C457.067 54.0174 461.802 53.3842 466.706 53.3842C472.367 53.3842 475.147 55.3154 475.147 59.2993V60.6817L460.96 62.613C451.03 63.911 445.936 70.0108 445.936 77.4139C445.936 84.817 452.433 91.5447 465.127 91.5447C470.238 91.5447 475.385 91.0328 480.527 90.4155C481.417 90.3152 482.328 90.1939 483.223 90.0883C483.498 89.9881 483.774 89.8825 484.044 89.7612C485.86 88.975 487.285 87.5028 488.042 85.6771C488.074 85.6085 488.095 85.5399 488.111 85.4555C488.386 84.7378 488.556 83.9833 488.593 83.1812C488.609 83.044 488.609 82.9227 488.609 82.7855V58.9985C488.508 48.6616 480.718 43.6699 469.401 43.6699V43.6752ZM475.147 80.8279C474.58 80.8965 474.03 80.9967 473.484 81.0864C471.461 81.4294 469.576 81.841 467.463 81.841C461.992 81.841 459.572 78.9705 459.572 76.0156C459.572 72.8865 461.341 70.6651 466.16 69.9158L475.147 68.5333V80.8384V80.8279Z" fill="#BE1D2D"/>
<path d="M594.264 43.6758C580.713 43.6758 571.625 50.509 571.625 64.835V69.8267C571.625 84.1474 580.903 90.9859 594.624 90.9859C600.492 90.9859 605.809 90.1997 610.385 88.6959C610.607 88.6431 610.814 88.5745 611.02 88.4901C611.725 88.2315 612.339 87.8252 612.821 87.2765C613.266 86.7805 613.61 86.2159 613.8 85.5668L614.023 84.3374L615.135 77.8788C613.488 78.5437 611.809 79.1241 610.056 79.6043H610.04C608.96 79.9103 607.864 80.1689 606.746 80.3746C603.728 80.992 600.572 81.2981 597.23 81.2981C590.732 81.2981 586.374 78.4276 585.532 72.5969L616.798 68.0696V64.8403C616.798 50.5196 607.705 43.6811 594.259 43.6811L594.264 43.6758ZM585.071 64.4551V63.996C585.071 56.1497 588.227 52.4455 594.624 52.4455C600.471 52.4455 603.543 55.7803 604.279 61.6057L585.071 64.4604V64.4551Z" fill="#BE1D2D"/>
<path d="M647.095 44.0347C646.306 43.9134 645.464 43.8448 644.574 43.7973H644.521C643.917 43.7815 643.319 43.7656 642.683 43.7656C637.022 43.7656 630.164 44.7893 623.301 45.9871V90.4373H629.973C633.712 90.4373 636.747 87.4138 636.747 83.6885V54.9415C637.758 54.7199 638.738 54.551 639.681 54.4297C641.137 54.2239 642.53 54.1236 643.885 54.1236C646.216 54.1236 648.329 54.4297 650.214 55.0312C650.818 55.237 651.4 55.4586 651.967 55.6961V50.5197C651.967 47.4593 649.907 44.8632 647.095 44.0453V44.0347Z" fill="#BE1D2D"/>
<path d="M517.735 62.6077C513.001 60.7609 508.182 59.3784 508.182 56.3338C508.182 54.1123 510.411 52.8987 516.809 52.8987C517.629 52.8987 518.455 52.9146 519.245 52.9673C522.57 53.1362 525.658 53.6849 528.607 54.7086C529.227 54.9144 529.841 55.1518 530.44 55.4104V53.1362C530.44 51.0941 530.572 48.8463 529.291 47.1103C528.147 45.559 526.256 44.8255 524.408 44.53C522.274 44.1923 520.129 43.9338 517.974 43.7966C516.687 43.7174 515.4 43.6699 514.113 43.6699C501.594 43.6699 494.73 48.0126 494.73 56.6926C494.73 66.3119 503.167 68.623 509.945 71.4724C515.416 73.8838 519.965 74.9075 519.965 77.9468C519.965 80.3582 517.359 81.7407 511.338 81.7407C509.95 81.7407 508.388 81.6721 506.741 81.5191C503.686 81.2289 500.36 80.6801 497.341 79.7936C496.467 79.5351 495.625 79.266 494.82 78.9547C494.942 79.8042 495.064 80.6537 495.186 81.5033C495.562 84.1205 495.572 86.8643 497.945 88.5476C499.052 89.3338 500.37 89.7612 501.7 90.0461C504.501 90.6371 507.467 90.7848 510.327 90.9115C513.282 91.0434 516.258 90.9801 519.186 90.5474C519.748 90.463 520.304 90.368 520.854 90.2572C524.487 89.529 528.216 88.0938 530.678 85.218C532.59 82.986 533.416 80.1155 533.416 77.2187C533.416 67.7841 525.34 65.4782 517.741 62.6077H517.735Z" fill="#BE1D2D"/>
<path d="M561.68 81.1884C560.822 81.257 559.948 81.2886 559.022 81.2886C555.214 81.2886 552.984 78.8772 552.984 75.0833V53.9241H561.489C564.01 53.9241 566.086 52.0087 566.346 49.5656V44.2151H552.984V31.4668L545.009 33.1078C544.94 33.1237 544.887 33.1237 544.818 33.1395C541.8 33.8043 539.533 36.4901 539.533 39.6825V75.1783C539.533 85.7051 546.667 90.9712 556.22 90.9712C558.037 90.9712 560.028 90.8498 561.998 90.528C562.803 90.3908 563.608 90.2008 564.397 89.9792C565.339 89.4832 566.097 88.6811 566.526 87.6891L566.902 85.3991V85.3463L567.813 79.98C565.79 80.6132 563.904 80.9878 561.897 81.1567C561.813 81.1567 561.744 81.1567 561.675 81.1725L561.68 81.1884Z" fill="#BE1D2D"/>
<path d="M161.389 121.739V111.35H163.173L168.194 118.858V111.35H169.978V121.739H168.194L163.173 114.246V121.739H161.389Z" fill="#BE1D2D"/>
<path d="M174.316 121.739V111.35H181.047V112.79H176.101V115.771H180.597V117.18H176.101V120.299H181.047V121.739H174.316Z" fill="#BE1D2D"/>
<path d="M184.622 121.739L187.868 116.484L184.59 111.35H186.645L189.012 115.075L191.199 111.35H193.222L189.976 116.558L193.28 121.734H191.225L188.826 117.966L186.639 121.734H184.616L184.622 121.739Z" fill="#BE1D2D"/>
<path d="M199.498 121.739V112.79H196.432V111.35H204.338V112.79H201.272V121.739H199.498Z" fill="#BE1D2D"/>
<path d="M207.361 118.102V116.619H213.526V118.102H207.361Z" fill="#BE1D2D"/>
<path d="M222.491 121.918C221.506 121.918 220.648 121.697 219.906 121.248C219.165 120.805 218.593 120.182 218.185 119.386C217.777 118.589 217.576 117.655 217.576 116.589C217.576 115.523 217.783 114.594 218.201 113.777C218.619 112.959 219.218 112.32 219.996 111.861C220.775 111.402 221.702 111.17 222.777 111.17C223.989 111.17 224.99 111.46 225.79 112.041C226.59 112.621 227.109 113.423 227.347 114.452H225.334C225.186 113.94 224.895 113.539 224.455 113.249C224.016 112.964 223.454 112.816 222.755 112.816C222.056 112.816 221.447 112.969 220.944 113.27C220.441 113.571 220.06 114.009 219.795 114.573C219.53 115.143 219.398 115.819 219.398 116.6C219.398 117.381 219.53 118.056 219.795 118.615C220.06 119.18 220.431 119.607 220.918 119.897C221.405 120.188 221.977 120.335 222.628 120.335C223.603 120.335 224.334 120.061 224.831 119.518C225.329 118.974 225.62 118.267 225.71 117.396H223.015V116.046H227.511V121.728H225.875L225.726 120.304C225.499 120.641 225.234 120.932 224.937 121.174C224.641 121.417 224.291 121.602 223.889 121.723C223.486 121.845 223.015 121.908 222.48 121.908L222.491 121.918Z" fill="#BE1D2D"/>
<path d="M231.68 121.739V111.35H238.411V112.79H233.464V115.771H237.96V117.18H233.464V120.299H238.411V121.739H231.68Z" fill="#BE1D2D"/>
<path d="M242.525 121.739V111.35H244.31L249.33 118.858V111.35H251.115V121.739H249.33L244.31 114.246V121.739H242.525Z" fill="#BE1D2D"/>
<path d="M261.32 121.739V111.35H264.688C265.901 111.35 266.902 111.561 267.691 111.988C268.48 112.415 269.068 113.017 269.449 113.793C269.831 114.568 270.021 115.492 270.021 116.558C270.021 117.624 269.831 118.521 269.449 119.296C269.068 120.072 268.48 120.673 267.691 121.101C266.902 121.528 265.901 121.739 264.688 121.739H261.32ZM263.105 120.225H264.593C265.499 120.225 266.208 120.077 266.733 119.787C267.252 119.497 267.628 119.075 267.85 118.526C268.072 117.977 268.184 117.323 268.184 116.558C268.184 115.793 268.072 115.128 267.85 114.579C267.628 114.03 267.257 113.603 266.733 113.302C266.214 113.001 265.499 112.848 264.593 112.848H263.105V120.225Z" fill="#BE1D2D"/>
<path d="M273.992 121.739V111.35H275.777V121.739H273.992Z" fill="#BE1D2D"/>
<path d="M284.653 121.918C283.668 121.918 282.81 121.697 282.068 121.248C281.327 120.805 280.755 120.182 280.347 119.386C279.94 118.589 279.738 117.655 279.738 116.589C279.738 115.523 279.945 114.594 280.363 113.777C280.782 112.959 281.38 112.32 282.158 111.861C282.937 111.402 283.864 111.17 284.939 111.17C286.151 111.17 287.152 111.46 287.952 112.041C288.752 112.621 289.271 113.423 289.509 114.452H287.497C287.348 113.94 287.057 113.539 286.617 113.249C286.178 112.964 285.617 112.816 284.918 112.816C284.219 112.816 283.61 112.969 283.106 113.27C282.603 113.571 282.222 114.009 281.957 114.573C281.692 115.143 281.56 115.819 281.56 116.6C281.56 117.381 281.692 118.056 281.957 118.615C282.222 119.18 282.593 119.607 283.08 119.897C283.567 120.188 284.139 120.335 284.79 120.335C285.765 120.335 286.496 120.061 286.993 119.518C287.491 118.974 287.783 118.267 287.873 117.396H285.177V116.046H289.673V121.728H288.037L287.888 120.304C287.661 120.641 287.396 120.932 287.099 121.174C286.803 121.417 286.453 121.602 286.051 121.723C285.648 121.845 285.177 121.908 284.642 121.908L284.653 121.918Z" fill="#BE1D2D"/>
<path d="M293.842 121.739V111.35H295.626V121.739H293.842Z" fill="#BE1D2D"/>
<path d="M302.389 121.739V112.79H299.322V111.35H307.229V112.79H304.163V121.739H302.389Z" fill="#BE1D2D"/>
<path d="M309.135 121.739L312.948 111.35H314.944L318.757 121.739H316.867L313.933 113.429L310.999 121.739H309.135ZM310.835 119.291L311.311 117.882H316.448L316.925 119.291H310.835Z" fill="#BE1D2D"/>
<path d="M322.423 121.739V111.35H324.208V120.341H328.852V121.734H322.418L322.423 121.739Z" fill="#BE1D2D"/>
<path d="M338.695 121.739V111.35H345.352V112.79H340.48V115.835H344.457V117.244H340.48V121.739H338.695Z" fill="#BE1D2D"/>
<path d="M352.057 121.918C351.311 121.918 350.665 121.786 350.114 121.522C349.563 121.258 349.134 120.889 348.832 120.408C348.531 119.928 348.377 119.369 348.377 118.725C348.377 118.229 348.478 117.77 348.684 117.343C348.885 116.915 349.198 116.541 349.606 116.214C350.019 115.886 350.532 115.623 351.147 115.427L351.819 115.206L352.64 116.319L351.983 116.541C351.358 116.747 350.892 117.031 350.585 117.385C350.278 117.739 350.125 118.155 350.125 118.63C350.125 118.968 350.204 119.269 350.368 119.543C350.532 119.818 350.765 120.029 351.078 120.187C351.385 120.345 351.745 120.424 352.148 120.424C352.693 120.424 353.185 120.303 353.62 120.06C354.054 119.818 354.478 119.427 354.885 118.894C355.076 118.657 355.267 118.382 355.457 118.071C355.653 117.76 355.849 117.411 356.045 117.026L356.4 116.345H358.232L357.682 117.411C357.422 117.918 357.163 118.377 356.908 118.799C356.649 119.221 356.384 119.591 356.103 119.918C355.537 120.609 354.928 121.116 354.271 121.432C353.614 121.749 352.878 121.907 352.052 121.907L352.057 121.918ZM356.675 121.738L351.014 116.087C350.559 115.633 350.23 115.216 350.04 114.842C349.844 114.467 349.749 114.071 349.749 113.654C349.749 113.18 349.865 112.757 350.098 112.388C350.331 112.019 350.67 111.723 351.11 111.507C351.549 111.29 352.084 111.18 352.709 111.18C353.334 111.18 353.858 111.296 354.287 111.523C354.716 111.75 355.039 112.05 355.272 112.43C355.5 112.805 355.611 113.232 355.6 113.707H353.874C353.874 113.333 353.757 113.048 353.53 112.852C353.302 112.657 353.021 112.562 352.698 112.562C352.322 112.562 352.02 112.662 351.803 112.858C351.586 113.058 351.475 113.317 351.475 113.644C351.475 113.902 351.554 114.166 351.713 114.435C351.872 114.71 352.105 115.011 352.412 115.348L358.831 121.743H356.67L356.675 121.738Z" fill="#BE1D2D"/>
<path d="M362.484 121.739V111.35H366.567C367.304 111.35 367.913 111.466 368.405 111.693C368.898 111.919 369.268 112.236 369.517 112.637C369.766 113.038 369.888 113.502 369.888 114.025C369.888 114.547 369.771 114.99 369.544 115.344C369.316 115.698 369.014 115.972 368.643 116.162C368.273 116.352 367.865 116.463 367.431 116.505L367.653 116.341C368.119 116.352 368.537 116.473 368.913 116.711C369.284 116.948 369.581 117.259 369.798 117.639C370.015 118.019 370.126 118.441 370.126 118.906C370.126 119.449 369.994 119.935 369.729 120.367C369.464 120.8 369.083 121.132 368.575 121.375C368.066 121.618 367.447 121.739 366.716 121.739H362.484ZM364.269 115.745H366.308C366.885 115.745 367.319 115.613 367.616 115.349C367.913 115.085 368.061 114.721 368.061 114.257C368.061 113.793 367.913 113.444 367.616 113.181C367.319 112.917 366.875 112.785 366.292 112.785H364.264V115.74L364.269 115.745ZM364.269 120.283H366.446C367.033 120.283 367.489 120.146 367.817 119.866C368.146 119.592 368.31 119.201 368.31 118.71C368.31 118.22 368.14 117.824 367.801 117.529C367.462 117.238 367.002 117.091 366.414 117.091H364.269V120.283Z" fill="#BE1D2D"/>
<path d="M384.479 121.918C383.494 121.918 382.636 121.697 381.895 121.248C381.153 120.805 380.581 120.182 380.173 119.386C379.766 118.589 379.564 117.655 379.564 116.589C379.564 115.523 379.771 114.594 380.189 113.777C380.608 112.959 381.206 112.32 381.985 111.861C382.763 111.402 383.69 111.17 384.765 111.17C385.978 111.17 386.979 111.46 387.778 112.041C388.578 112.621 389.097 113.423 389.335 114.452H387.323C387.174 113.94 386.883 113.539 386.444 113.249C386.004 112.964 385.443 112.816 384.744 112.816C384.045 112.816 383.436 112.969 382.933 113.27C382.429 113.571 382.048 114.009 381.783 114.573C381.519 115.143 381.386 115.819 381.386 116.6C381.386 117.381 381.519 118.056 381.783 118.615C382.048 119.18 382.419 119.607 382.906 119.897C383.393 120.188 383.965 120.335 384.617 120.335C385.591 120.335 386.322 120.061 386.82 119.518C387.317 118.974 387.609 118.267 387.699 117.396H385.003V116.046H389.499V121.728H387.863L387.715 120.304C387.487 120.641 387.222 120.932 386.926 121.174C386.629 121.417 386.28 121.602 385.877 121.723C385.475 121.845 385.003 121.908 384.468 121.908L384.479 121.918Z" fill="#BE1D2D"/>
<path d="M393.666 121.739V111.35H397.405C398.231 111.35 398.909 111.492 399.454 111.772C400 112.051 400.397 112.431 400.662 112.901C400.927 113.371 401.059 113.903 401.059 114.494C401.059 115.049 400.932 115.56 400.672 116.035C400.413 116.51 400.01 116.89 399.465 117.18C398.919 117.465 398.22 117.613 397.362 117.613H395.456V121.739H393.671H393.666ZM395.451 116.294H397.283C397.95 116.294 398.438 116.136 398.75 115.814C399.062 115.492 399.221 115.07 399.221 114.547C399.221 114.025 399.068 113.619 398.761 113.307C398.453 112.996 397.961 112.838 397.288 112.838H395.456V116.294H395.451ZM399.099 121.739L396.912 117.154H398.851L401.144 121.739H399.105H399.099Z" fill="#BE1D2D"/>
<path d="M409.882 121.917C408.881 121.917 407.992 121.69 407.224 121.242C406.456 120.793 405.852 120.165 405.413 119.358C404.973 118.551 404.756 117.617 404.756 116.545C404.756 115.474 404.973 114.556 405.413 113.749C405.847 112.941 406.451 112.314 407.224 111.855C407.992 111.401 408.876 111.174 409.882 111.174C410.888 111.174 411.805 111.401 412.578 111.855C413.351 112.308 413.955 112.941 414.378 113.749C414.807 114.556 415.019 115.485 415.019 116.545C415.019 117.606 414.807 118.551 414.378 119.358C413.949 120.165 413.351 120.793 412.578 121.242C411.805 121.69 410.904 121.917 409.882 121.917ZM409.898 120.313C410.56 120.313 411.143 120.16 411.64 119.859C412.138 119.558 412.519 119.126 412.79 118.561C413.06 117.996 413.192 117.326 413.192 116.545C413.192 115.764 413.06 115.089 412.79 114.53C412.519 113.965 412.138 113.532 411.64 113.232C411.143 112.931 410.56 112.778 409.898 112.778C409.236 112.778 408.654 112.931 408.156 113.232C407.658 113.532 407.277 113.965 407.001 114.53C406.726 115.094 406.594 115.764 406.594 116.545C406.594 117.326 406.731 118.002 407.001 118.561C407.271 119.126 407.658 119.558 408.156 119.859C408.654 120.16 409.231 120.313 409.898 120.313Z" fill="#BE1D2D"/>
<path d="M422.947 121.917C422.195 121.917 421.512 121.77 420.898 121.474C420.283 121.179 419.802 120.725 419.436 120.107C419.071 119.49 418.891 118.725 418.891 117.791V111.354H420.681V117.807C420.681 118.371 420.776 118.836 420.961 119.2C421.152 119.564 421.417 119.838 421.756 120.023C422.1 120.208 422.502 120.297 422.968 120.297C423.434 120.297 423.853 120.208 424.197 120.023C424.541 119.838 424.801 119.564 424.986 119.2C425.171 118.836 425.261 118.366 425.261 117.807V111.354H427.051V117.791C427.051 118.72 426.866 119.49 426.501 120.107C426.135 120.725 425.637 121.173 425.013 121.474C424.388 121.77 423.699 121.917 422.942 121.917H422.947Z" fill="#BE1D2D"/>
<path d="M431.299 121.739V111.35H435.054C435.89 111.35 436.579 111.492 437.124 111.772C437.67 112.051 438.077 112.431 438.347 112.906C438.618 113.381 438.75 113.925 438.75 114.537C438.75 115.112 438.623 115.64 438.363 116.12C438.104 116.6 437.701 116.985 437.156 117.275C436.61 117.565 435.911 117.713 435.054 117.713H433.089V121.734H431.304L431.299 121.739ZM433.089 116.262H434.953C435.657 116.262 436.166 116.104 436.473 115.793C436.78 115.481 436.934 115.064 436.934 114.537C436.934 114.009 436.78 113.566 436.473 113.26C436.166 112.954 435.657 112.801 434.953 112.801H433.089V116.257V116.262Z" fill="#BE1D2D"/>
<path d="M450.494 121.739L447.725 111.35H449.631L451.58 119.702L453.841 111.35H455.822L458.009 119.718L459.974 111.35H461.896L459.052 121.739H456.939L454.794 113.877L452.591 121.739H450.494Z" fill="#BE1D2D"/>
<path d="M465.566 121.739V111.35H467.351V121.739H465.566Z" fill="#BE1D2D"/>
<path d="M474.115 121.739V112.79H471.049V111.35H478.955V112.79H475.889V121.739H474.115Z" fill="#BE1D2D"/>
<path d="M482.662 121.739V111.35H484.447V121.739H482.662ZM484.182 117.17V115.713H489.589V117.17H484.182ZM489.245 121.739V111.35H491.029V121.739H489.245Z" fill="#BE1D2D"/>
<path d="M500.906 121.739V120.373L505.82 112.848H500.937V111.35H507.891V112.716L502.945 120.241H507.917V121.739H500.9H500.906Z" fill="#BE1D2D"/>
<path d="M511.926 121.739V111.35H518.657V112.79H513.71V115.771H518.207V117.18H513.71V120.299H518.657V121.739H511.926Z" fill="#BE1D2D"/>
<path d="M522.771 121.739V111.35H526.51C527.336 111.35 528.014 111.492 528.56 111.772C529.105 112.051 529.502 112.431 529.767 112.901C530.032 113.371 530.164 113.903 530.164 114.494C530.164 115.049 530.037 115.56 529.778 116.035C529.518 116.51 529.116 116.89 528.57 117.18C528.025 117.465 527.326 117.613 526.468 117.613H524.561V121.739H522.777H522.771ZM524.556 116.294H526.388C527.056 116.294 527.543 116.136 527.855 115.814C528.168 115.492 528.327 115.07 528.327 114.547C528.327 114.025 528.173 113.619 527.866 113.307C527.559 112.996 527.066 112.838 526.394 112.838H524.561V116.294H524.556ZM528.205 121.739L526.018 117.154H527.956L530.249 121.739H528.21H528.205Z" fill="#BE1D2D"/>
<path d="M538.988 121.917C537.987 121.917 537.097 121.69 536.329 121.242C535.561 120.793 534.958 120.165 534.518 119.358C534.078 118.551 533.861 117.617 533.861 116.545C533.861 115.474 534.078 114.556 534.518 113.749C534.952 112.941 535.556 112.314 536.329 111.855C537.097 111.401 537.981 111.174 538.988 111.174C539.994 111.174 540.91 111.401 541.683 111.855C542.456 112.308 543.06 112.941 543.484 113.749C543.913 114.556 544.124 115.485 544.124 116.545C544.124 117.606 543.913 118.551 543.484 119.358C543.055 120.165 542.456 120.793 541.683 121.242C540.91 121.69 540.01 121.917 538.988 121.917ZM539.003 120.313C539.665 120.313 540.248 120.16 540.746 119.859C541.244 119.558 541.625 119.126 541.895 118.561C542.165 117.996 542.297 117.326 542.297 116.545C542.297 115.764 542.165 115.089 541.895 114.53C541.625 113.965 541.244 113.532 540.746 113.232C540.248 112.931 539.665 112.778 539.003 112.778C538.342 112.778 537.759 112.931 537.261 113.232C536.763 113.532 536.382 113.965 536.107 114.53C535.831 115.094 535.699 115.764 535.699 116.545C535.699 117.326 535.837 118.002 536.107 118.561C536.377 119.126 536.763 119.558 537.261 119.859C537.759 120.16 538.336 120.313 539.003 120.313Z" fill="#BE1D2D"/>
<path d="M553.968 121.739V111.35H555.753V115.64L559.682 111.35H561.901L558.046 115.476L561.991 121.739H559.815L556.775 116.843L555.748 117.956V121.739H553.963H553.968Z" fill="#BE1D2D"/>
<path d="M565.631 121.739V111.35H567.416V121.739H565.631Z" fill="#BE1D2D"/>
<path d="M574.178 121.739V112.79H571.111V111.35H579.018V112.79H575.952V121.739H574.178Z" fill="#BE1D2D"/>
<path d="M586.956 121.917C585.923 121.917 585.033 121.69 584.281 121.242C583.529 120.793 582.957 120.165 582.555 119.358C582.152 118.551 581.951 117.622 581.951 116.561C581.951 115.501 582.152 114.556 582.555 113.749C582.957 112.941 583.535 112.314 584.281 111.855C585.033 111.401 585.923 111.174 586.956 111.174C588.195 111.174 589.212 111.48 589.995 112.087C590.779 112.693 591.277 113.554 591.484 114.662H589.519C589.381 114.076 589.095 113.617 588.671 113.279C588.243 112.941 587.671 112.773 586.945 112.773C586.288 112.773 585.727 112.926 585.256 113.226C584.784 113.527 584.424 113.965 584.17 114.53C583.916 115.1 583.789 115.775 583.789 116.556C583.789 117.337 583.916 118.007 584.17 118.566C584.424 119.126 584.784 119.558 585.256 119.859C585.727 120.16 586.294 120.313 586.945 120.313C587.671 120.313 588.248 120.155 588.671 119.843C589.1 119.532 589.381 119.099 589.519 118.545H591.484C591.282 119.595 590.79 120.418 590.001 121.015C589.212 121.611 588.195 121.912 586.956 121.912V121.917Z" fill="#BE1D2D"/>
<path d="M595.461 121.739V111.35H597.246V121.739H595.461ZM596.976 117.17V115.713H602.382V117.17H596.976ZM602.044 121.739V111.35H603.828V121.739H602.044Z" fill="#BE1D2D"/>
<path d="M608.176 121.739V111.35H614.907V112.79H609.96V115.771H614.457V117.18H609.96V120.299H614.907V121.739H608.176Z" fill="#BE1D2D"/>
<path d="M619.021 121.739V111.35H620.806L625.827 118.858V111.35H627.611V121.739H625.827L620.806 114.246V121.739H619.021Z" fill="#BE1D2D"/>
<path d="M635.445 121.918C634.693 121.918 634.021 121.786 633.433 121.517C632.845 121.248 632.389 120.868 632.061 120.372C631.733 119.876 631.563 119.29 631.553 118.604H633.443C633.443 118.952 633.523 119.258 633.687 119.533C633.851 119.807 634.079 120.018 634.37 120.177C634.661 120.335 635.016 120.414 635.435 120.414C635.789 120.414 636.102 120.356 636.367 120.245C636.631 120.129 636.833 119.971 636.976 119.754C637.119 119.543 637.193 119.29 637.193 119.005C637.193 118.678 637.113 118.409 636.96 118.198C636.806 117.987 636.594 117.802 636.329 117.654C636.059 117.507 635.752 117.375 635.408 117.259C635.064 117.142 634.693 117.021 634.307 116.894C633.48 116.62 632.861 116.261 632.448 115.834C632.029 115.401 631.823 114.826 631.823 114.103C631.823 113.502 631.966 112.979 632.257 112.547C632.543 112.114 632.951 111.771 633.47 111.528C633.989 111.285 634.592 111.164 635.281 111.164C635.969 111.164 636.584 111.285 637.108 111.533C637.627 111.781 638.04 112.124 638.342 112.562C638.644 113 638.803 113.528 638.813 114.145H636.907C636.896 113.887 636.827 113.649 636.7 113.428C636.573 113.206 636.382 113.021 636.144 112.879C635.901 112.736 635.604 112.663 635.26 112.663C634.963 112.652 634.698 112.7 634.465 112.805C634.232 112.911 634.047 113.058 633.915 113.248C633.782 113.444 633.713 113.681 633.713 113.966C633.713 114.251 633.777 114.472 633.899 114.657C634.021 114.842 634.206 114.995 634.444 115.116C634.683 115.238 634.958 115.354 635.276 115.465C635.593 115.575 635.943 115.691 636.319 115.818C636.833 115.987 637.304 116.193 637.728 116.435C638.151 116.678 638.485 116.989 638.734 117.38C638.983 117.765 639.104 118.266 639.104 118.878C639.104 119.411 638.967 119.907 638.686 120.372C638.405 120.831 638.003 121.2 637.463 121.485C636.928 121.765 636.255 121.907 635.45 121.907L635.445 121.918Z" fill="#BE1D2D"/>
</svg>
